<mxfile host="65bd71144e">
    <diagram name="one-way" id="908UhZnWfeWfuIsrQv4d">
        <mxGraphModel dx="1152" dy="517" grid="1" gridSize="10" guides="1" tooltips="1" connect="1" arrows="1" fold="1" page="1" pageScale="1" pageWidth="827" pageHeight="1169" math="0" shadow="0">
            <root>
                <mxCell id="8bPjO0RLtzHRz3R5lM4H-0"/>
                <mxCell id="8bPjO0RLtzHRz3R5lM4H-1" parent="8bPjO0RLtzHRz3R5lM4H-0"/>
                <mxCell id="8bPjO0RLtzHRz3R5lM4H-3" value="Receiver" style="rounded=0;whiteSpace=wrap;html=1;fillColor=#e1d5e7;strokeColor=#9673a6;" parent="8bPjO0RLtzHRz3R5lM4H-1" vertex="1">
                    <mxGeometry x="400" y="130" width="80" height="70" as="geometry"/>
                </mxCell>
                <mxCell id="8bPjO0RLtzHRz3R5lM4H-4" style="edgeStyle=orthogonalEdgeStyle;rounded=0;orthogonalLoop=1;jettySize=auto;html=1;exitX=1;exitY=0.5;exitDx=0;exitDy=0;entryX=0;entryY=0.5;entryDx=0;entryDy=0;" parent="8bPjO0RLtzHRz3R5lM4H-1" source="8bPjO0RLtzHRz3R5lM4H-5" target="8bPjO0RLtzHRz3R5lM4H-3" edge="1">
                    <mxGeometry relative="1" as="geometry"/>
                </mxCell>
                <mxCell id="8bPjO0RLtzHRz3R5lM4H-5" value="Sender" style="rounded=0;whiteSpace=wrap;html=1;fillColor=#e1d5e7;strokeColor=#9673a6;" parent="8bPjO0RLtzHRz3R5lM4H-1" vertex="1">
                    <mxGeometry x="80" y="130" width="80" height="70" as="geometry"/>
                </mxCell>
                <mxCell id="5tR_oQuG6OPdZyy4yrli-1" style="edgeStyle=orthogonalEdgeStyle;rounded=0;orthogonalLoop=1;jettySize=auto;html=1;exitX=0;exitY=0.5;exitDx=0;exitDy=0;exitPerimeter=0;entryX=0;entryY=0.5;entryDx=0;entryDy=0;entryPerimeter=0;dashed=1;" parent="8bPjO0RLtzHRz3R5lM4H-1" source="8bPjO0RLtzHRz3R5lM4H-8" target="5tR_oQuG6OPdZyy4yrli-0" edge="1">
                    <mxGeometry relative="1" as="geometry"/>
                </mxCell>
                <mxCell id="5tR_oQuG6OPdZyy4yrli-2" value="about" style="edgeLabel;html=1;align=center;verticalAlign=middle;resizable=0;points=[];fontStyle=2" parent="5tR_oQuG6OPdZyy4yrli-1" vertex="1" connectable="0">
                    <mxGeometry x="0.2643" y="1" relative="1" as="geometry">
                        <mxPoint y="1" as="offset"/>
                    </mxGeometry>
                </mxCell>
                <mxCell id="8bPjO0RLtzHRz3R5lM4H-8" value="notification" style="shape=note;whiteSpace=wrap;html=1;backgroundOutline=1;darkOpacity=0.05;size=15;labelPosition=center;verticalLabelPosition=middle;align=center;verticalAlign=middle;fillColor=#d5e8d4;strokeColor=#82b366;" parent="8bPjO0RLtzHRz3R5lM4H-1" vertex="1">
                    <mxGeometry x="250" y="130" width="70" height="60" as="geometry"/>
                </mxCell>
                <mxCell id="5tR_oQuG6OPdZyy4yrli-0" value="artefact" style="shape=note;whiteSpace=wrap;html=1;backgroundOutline=1;darkOpacity=0.05;size=15;labelPosition=center;verticalLabelPosition=middle;align=center;verticalAlign=middle;fillColor=#ffe6cc;strokeColor=#d79b00;" parent="8bPjO0RLtzHRz3R5lM4H-1" vertex="1">
                    <mxGeometry x="250" y="30" width="70" height="60" as="geometry"/>
                </mxCell>
            </root>
        </mxGraphModel>
    </diagram>
    <diagram name="request-response" id="wvXQjPP3Ur-OENx53_RM">
        <mxGraphModel dx="1152" dy="517" grid="1" gridSize="10" guides="1" tooltips="1" connect="1" arrows="1" fold="1" page="1" pageScale="1" pageWidth="827" pageHeight="1169" math="0" shadow="0">
            <root>
                <mxCell id="5XWDEBpTBD6bNDyLlJRa-0"/>
                <mxCell id="5XWDEBpTBD6bNDyLlJRa-1" parent="5XWDEBpTBD6bNDyLlJRa-0"/>
                <mxCell id="5XWDEBpTBD6bNDyLlJRa-6" style="edgeStyle=orthogonalEdgeStyle;rounded=0;orthogonalLoop=1;jettySize=auto;html=1;exitX=0;exitY=0.5;exitDx=0;exitDy=0;entryX=1;entryY=0.5;entryDx=0;entryDy=0;dashed=1;dashPattern=1 1;" parent="5XWDEBpTBD6bNDyLlJRa-1" source="5XWDEBpTBD6bNDyLlJRa-2" target="5XWDEBpTBD6bNDyLlJRa-4" edge="1">
                    <mxGeometry relative="1" as="geometry"/>
                </mxCell>
                <mxCell id="5XWDEBpTBD6bNDyLlJRa-2" value="Receiver" style="rounded=0;whiteSpace=wrap;html=1;fillColor=#e1d5e7;strokeColor=#9673a6;" parent="5XWDEBpTBD6bNDyLlJRa-1" vertex="1">
                    <mxGeometry x="510" y="120" width="80" height="270" as="geometry"/>
                </mxCell>
                <mxCell id="5XWDEBpTBD6bNDyLlJRa-3" style="edgeStyle=orthogonalEdgeStyle;rounded=0;orthogonalLoop=1;jettySize=auto;html=1;exitX=1;exitY=0.25;exitDx=0;exitDy=0;entryX=0;entryY=0.25;entryDx=0;entryDy=0;" parent="5XWDEBpTBD6bNDyLlJRa-1" source="5XWDEBpTBD6bNDyLlJRa-4" target="5XWDEBpTBD6bNDyLlJRa-2" edge="1">
                    <mxGeometry relative="1" as="geometry"/>
                </mxCell>
                <mxCell id="5XWDEBpTBD6bNDyLlJRa-4" value="Sender" style="rounded=0;whiteSpace=wrap;html=1;fillColor=#e1d5e7;strokeColor=#9673a6;" parent="5XWDEBpTBD6bNDyLlJRa-1" vertex="1">
                    <mxGeometry x="80" y="120" width="80" height="270" as="geometry"/>
                </mxCell>
                <mxCell id="5XWDEBpTBD6bNDyLlJRa-9" style="edgeStyle=orthogonalEdgeStyle;rounded=0;orthogonalLoop=1;jettySize=auto;html=1;exitX=0.5;exitY=0;exitDx=0;exitDy=0;exitPerimeter=0;entryX=0.5;entryY=1;entryDx=0;entryDy=0;entryPerimeter=0;dashed=1;" parent="5XWDEBpTBD6bNDyLlJRa-1" source="5XWDEBpTBD6bNDyLlJRa-7" target="5XWDEBpTBD6bNDyLlJRa-5" edge="1">
                    <mxGeometry relative="1" as="geometry"/>
                </mxCell>
                <mxCell id="5XWDEBpTBD6bNDyLlJRa-10" value="about" style="edgeLabel;html=1;align=center;verticalAlign=middle;resizable=0;points=[];fontStyle=2" parent="5XWDEBpTBD6bNDyLlJRa-9" vertex="1" connectable="0">
                    <mxGeometry x="0.0533" y="-2" relative="1" as="geometry">
                        <mxPoint as="offset"/>
                    </mxGeometry>
                </mxCell>
                <mxCell id="5XWDEBpTBD6bNDyLlJRa-5" value="request&lt;br&gt;notification" style="shape=note;whiteSpace=wrap;html=1;backgroundOutline=1;darkOpacity=0.05;size=15;labelPosition=center;verticalLabelPosition=middle;align=center;verticalAlign=middle;fillColor=#d5e8d4;strokeColor=#82b366;" parent="5XWDEBpTBD6bNDyLlJRa-1" vertex="1">
                    <mxGeometry x="250" y="140" width="70" height="60" as="geometry"/>
                </mxCell>
                <mxCell id="5XWDEBpTBD6bNDyLlJRa-7" value="ack&lt;br&gt;notification" style="shape=note;whiteSpace=wrap;html=1;backgroundOutline=1;darkOpacity=0.05;size=15;labelPosition=center;verticalLabelPosition=middle;align=center;verticalAlign=middle;fillColor=#dae8fc;strokeColor=#6c8ebf;dashed=1;dashPattern=1 1;" parent="5XWDEBpTBD6bNDyLlJRa-1" vertex="1">
                    <mxGeometry x="250" y="230" width="70" height="60" as="geometry"/>
                </mxCell>
                <mxCell id="C3yxXDd2gP-ovES_yXSw-0" style="edgeStyle=orthogonalEdgeStyle;rounded=0;orthogonalLoop=1;jettySize=auto;html=1;entryX=0;entryY=0.5;entryDx=0;entryDy=0;entryPerimeter=0;dashed=1;exitX=0.5;exitY=0;exitDx=0;exitDy=0;exitPerimeter=0;" parent="5XWDEBpTBD6bNDyLlJRa-1" source="5XWDEBpTBD6bNDyLlJRa-5" target="C3yxXDd2gP-ovES_yXSw-2" edge="1">
                    <mxGeometry relative="1" as="geometry">
                        <mxPoint x="260" y="160" as="sourcePoint"/>
                        <Array as="points">
                            <mxPoint x="285" y="130"/>
                        </Array>
                    </mxGeometry>
                </mxCell>
                <mxCell id="C3yxXDd2gP-ovES_yXSw-1" value="about" style="edgeLabel;html=1;align=center;verticalAlign=middle;resizable=0;points=[];fontStyle=2" parent="C3yxXDd2gP-ovES_yXSw-0" vertex="1" connectable="0">
                    <mxGeometry x="0.2643" y="1" relative="1" as="geometry">
                        <mxPoint y="1" as="offset"/>
                    </mxGeometry>
                </mxCell>
                <mxCell id="C3yxXDd2gP-ovES_yXSw-2" value="artefact" style="shape=note;whiteSpace=wrap;html=1;backgroundOutline=1;darkOpacity=0.05;size=15;labelPosition=center;verticalLabelPosition=middle;align=center;verticalAlign=middle;fillColor=#ffe6cc;strokeColor=#d79b00;" parent="5XWDEBpTBD6bNDyLlJRa-1" vertex="1">
                    <mxGeometry x="360" y="100" width="50" height="60" as="geometry"/>
                </mxCell>
                <mxCell id="oPlKprvDATqQ7-6mS8ei-0" style="edgeStyle=orthogonalEdgeStyle;rounded=0;orthogonalLoop=1;jettySize=auto;html=1;exitX=0;exitY=0.75;exitDx=0;exitDy=0;entryX=1;entryY=0.75;entryDx=0;entryDy=0;startArrow=none;" edge="1" parent="5XWDEBpTBD6bNDyLlJRa-1" source="5XWDEBpTBD6bNDyLlJRa-2" target="5XWDEBpTBD6bNDyLlJRa-4">
                    <mxGeometry relative="1" as="geometry">
                        <mxPoint x="400" y="352.5" as="sourcePoint"/>
                        <mxPoint x="160" y="352.5" as="targetPoint"/>
                    </mxGeometry>
                </mxCell>
                <mxCell id="oPlKprvDATqQ7-6mS8ei-2" style="edgeStyle=orthogonalEdgeStyle;rounded=0;orthogonalLoop=1;jettySize=auto;html=1;exitX=0;exitY=0;exitDx=70;exitDy=15;exitPerimeter=0;entryX=0;entryY=0;entryDx=50;entryDy=37.5;entryPerimeter=0;dashed=1;jumpStyle=arc;" edge="1" parent="5XWDEBpTBD6bNDyLlJRa-1" source="oPlKprvDATqQ7-6mS8ei-1" target="C3yxXDd2gP-ovES_yXSw-2">
                    <mxGeometry relative="1" as="geometry"/>
                </mxCell>
                <mxCell id="GrccVD3TDaVM8hRji_zC-0" style="edgeStyle=orthogonalEdgeStyle;rounded=0;orthogonalLoop=1;jettySize=auto;html=1;exitX=0;exitY=0;exitDx=70;exitDy=15;exitPerimeter=0;entryX=0;entryY=0;entryDx=50;entryDy=37.5;entryPerimeter=0;dashed=1;" parent="5XWDEBpTBD6bNDyLlJRa-1" source="5XWDEBpTBD6bNDyLlJRa-7" target="C3yxXDd2gP-ovES_yXSw-2" edge="1">
                    <mxGeometry relative="1" as="geometry"/>
                </mxCell>
                <mxCell id="GrccVD3TDaVM8hRji_zC-2" value="context" style="edgeLabel;html=1;align=center;verticalAlign=middle;resizable=0;points=[];fontStyle=2" parent="GrccVD3TDaVM8hRji_zC-0" vertex="1" connectable="0">
                    <mxGeometry x="-0.528" y="-1" relative="1" as="geometry">
                        <mxPoint as="offset"/>
                    </mxGeometry>
                </mxCell>
                <mxCell id="oPlKprvDATqQ7-6mS8ei-1" value="response&lt;br&gt;notification" style="shape=note;whiteSpace=wrap;html=1;backgroundOutline=1;darkOpacity=0.05;size=15;labelPosition=center;verticalLabelPosition=middle;align=center;verticalAlign=middle;fillColor=#dae8fc;strokeColor=#6c8ebf;" vertex="1" parent="5XWDEBpTBD6bNDyLlJRa-1">
                    <mxGeometry x="250" y="300" width="70" height="60" as="geometry"/>
                </mxCell>
            </root>
        </mxGraphModel>
    </diagram>
</mxfile>